<?xml version="1.0" encoding="UTF-8"?>
<!DOCTYPE svg PUBLIC "-//W3C//DTD SVG 1.1//EN" "http://www.w3.org/Graphics/SVG/1.1/DTD/svg11.dtd">
<svg xmlns="http://www.w3.org/2000/svg" version="1.1" width="202px" height="42px" style="shape-rendering:geometricPrecision; text-rendering:geometricPrecision; image-rendering:optimizeQuality; fill-rule:evenodd; clip-rule:evenodd" xmlns:xlink="http://www.w3.org/1999/xlink">
<g><path style="opacity:0.006" fill="#fcfcfc" d="M 92.5,9.5 C 91.8333,9.5 91.1667,9.5 90.5,9.5C 89.1498,8.35009 89.3164,7.68342 91,7.5C 92.0299,7.83611 92.5299,8.50278 92.5,9.5 Z"/></g>
<g><path style="opacity:1" fill="#ff8a80" d="M 141.5,9.5 C 143.598,8.51552 145.598,8.84885 147.5,10.5C 145.423,11.5234 143.423,11.19 141.5,9.5 Z"/></g>
<g><path style="opacity:0.676" fill="#ff8381" d="M 150.5,10.5 C 156.401,9.19426 162.401,9.19426 168.5,10.5C 168.784,12.4147 168.451,14.0813 167.5,15.5C 165.833,15.5 164.167,15.5 162.5,15.5C 163.568,14.5655 164.901,14.2322 166.5,14.5C 166.5,13.1667 166.5,11.8333 166.5,10.5C 161.167,10.5 155.833,10.5 150.5,10.5 Z"/></g>
<g><path style="opacity:0.522" fill="#ffaaa8" d="M 168.5,10.5 C 173.64,9.51192 178.974,9.17859 184.5,9.5C 184.232,11.099 184.566,12.4324 185.5,13.5C 185.5,14.1667 185.167,14.5 184.5,14.5C 184.167,14.5 183.833,14.5 183.5,14.5C 183.5,13.1667 183.5,11.8333 183.5,10.5C 178.5,10.5 173.5,10.5 168.5,10.5 Z"/></g>
<g><path style="opacity:1" fill="#161616" d="M 48.5,11.5 C 48.5915,18.0075 49.2582,18.0075 50.5,11.5C 50.7911,10.3509 51.6244,9.68423 53,9.5C 54.6991,9.38655 55.8658,10.0532 56.5,11.5C 56.848,16.3747 57.5146,16.0413 58.5,10.5C 60.0496,9.28006 61.7163,9.28006 63.5,10.5C 62.3245,17.8824 60.8245,25.2158 59,32.5C 57.6439,33.3802 56.1439,33.7135 54.5,33.5C 54.1667,33.5 53.8333,33.5 53.5,33.5C 52.8519,31.9142 52.3519,30.2475 52,28.5C 51.588,32.4033 49.4214,34.07 45.5,33.5C 44.7784,33.0825 44.2784,32.4158 44,31.5C 43.4996,24.4941 42.9996,17.4941 42.5,10.5C 44.0603,10.4809 45.5603,10.1476 47,9.5C 48.0299,9.83611 48.5299,10.5028 48.5,11.5 Z"/></g>
<g><path style="opacity:1" fill="#1a1a1a" d="M 80.5,12.5 C 80.5,14.5 80.5,16.5 80.5,18.5C 79.1667,18.5 77.8333,18.5 76.5,18.5C 76.1667,18.5 75.8333,18.5 75.5,18.5C 75.762,17.0222 75.4287,15.6888 74.5,14.5C 71.9652,16.4939 72.2985,18.1605 75.5,19.5C 75.8333,19.5 76.1667,19.5 76.5,19.5C 77.8333,21.1667 79.1667,22.8333 80.5,24.5C 80.2373,31.4165 76.5706,34.4165 69.5,33.5C 64.9215,32.8282 63.9215,30.8282 66.5,27.5C 68.7537,27.754 71.087,27.754 73.5,27.5C 71.4698,25.393 69.3031,23.393 67,21.5C 64.8343,14.5106 67.3343,10.5106 74.5,9.5C 77.1016,9.46719 79.1016,10.4672 80.5,12.5 Z"/></g>
<g><path style="opacity:1" fill="#121212" d="M 90.5,9.5 C 91.1667,9.5 91.8333,9.5 92.5,9.5C 94.698,9.12012 96.3646,9.78679 97.5,11.5C 95.7923,16.9105 93.1257,21.9105 89.5,26.5C 90.9584,27.782 92.2918,27.782 93.5,26.5C 93.5,26.1667 93.5,25.8333 93.5,25.5C 94.791,25.2627 95.791,25.596 96.5,26.5C 96.7394,28.4672 96.4061,30.3005 95.5,32C 91.8865,32.9358 88.2198,33.4358 84.5,33.5C 83.5,33.1667 82.8333,32.5 82.5,31.5C 81.1667,29.8333 81.1667,28.1667 82.5,26.5C 84.1667,23.8333 85.8333,21.1667 87.5,18.5C 88.0431,18.44 88.3764,18.1067 88.5,17.5C 86.0251,17.0358 84.0251,16.0358 82.5,14.5C 82.5,13.1667 82.5,11.8333 82.5,10.5C 85.1667,10.1667 87.8333,9.83333 90.5,9.5 Z"/></g>
<g><path style="opacity:1" fill="#101010" d="M 112.5,10.5 C 112.427,12.0269 113.094,13.0269 114.5,13.5C 115.167,13.5 115.5,13.8333 115.5,14.5C 117.344,26.5509 112.344,32.8842 100.5,33.5C 100.167,33.5 99.8333,33.5 99.5,33.5C 99.5,30.1667 99.5,26.8333 99.5,23.5C 99.5,21.1667 99.5,18.8333 99.5,16.5C 100.285,14.6264 100.952,12.6264 101.5,10.5C 105.167,9.16667 108.833,9.16667 112.5,10.5 Z M 109.5,17.5 C 109.868,21.0443 108.868,24.0443 106.5,26.5C 106.5,23.5 106.5,20.5 106.5,17.5C 107.5,17.5 108.5,17.5 109.5,17.5 Z"/></g>
<g><path style="opacity:0.518" fill="#817e7f" d="M 9.5,-0.5 C 9.83333,-0.5 10.1667,-0.5 10.5,-0.5C 12.498,1.59981 14.6647,3.59981 17,5.5C 17.9734,7.39212 18.6401,9.39212 19,11.5C 19.2492,10.376 19.7492,9.37598 20.5,8.5C 22.5,11.1667 24.5,11.1667 26.5,8.5C 28.5,11.1667 30.5,11.1667 32.5,8.5C 34.4268,9.86237 36.4268,10.8624 38.5,11.5C 36.1727,11.2471 34.1727,11.9137 32.5,13.5C 31.5,12.8333 30.5,12.1667 29.5,11.5C 28.5,12.1667 27.5,12.8333 26.5,13.5C 25.5,12.8333 24.5,12.1667 23.5,11.5C 22.0878,12.8064 20.4211,13.6397 18.5,14C 25.1583,14.4996 31.825,14.6663 38.5,14.5C 38.5,15.1667 38.5,15.8333 38.5,16.5C 31.1591,16.3337 23.8258,16.5003 16.5,17C 15.3636,18.1451 14.3636,19.3117 13.5,20.5C 12.9094,21.1515 12.2427,21.8182 11.5,22.5C 12.2427,23.1818 12.9094,23.8485 13.5,24.5C 12.1667,24.5 11.5,25.1667 11.5,26.5C 10.4767,24.3245 9.81008,22.3245 9.5,20.5C 8.50776,24.7828 8.17443,29.1161 8.5,33.5C 7.6745,29.0181 7.1745,24.3514 7,19.5C 2.3317,17.3431 0.165037,13.6765 0.5,8.5C 1.5,8.5 2.5,8.5 3.5,8.5C 4.80686,9.80163 4.80686,11.135 3.5,12.5C 3.91862,13.6721 4.58529,14.6721 5.5,15.5C 7.64775,15.7011 9.81442,16.0345 12,16.5C 13.2613,16.2409 14.2613,15.5742 15,14.5C 14.6374,12.2842 14.8041,10.1176 15.5,8C 15.2409,6.73869 14.5742,5.73869 13.5,5C 10.7569,5.41063 8.09019,5.5773 5.5,5.5C 6.41511,3.24595 7.74844,1.24595 9.5,-0.5 Z M 13.5,20.5 C 10.9991,20.4891 10.8324,19.8224 13,18.5C 13.4643,19.0944 13.631,19.7611 13.5,20.5 Z"/></g>
<g><path style="opacity:0.847" fill="#787878" d="M 112.5,10.5 C 113.906,10.9731 114.573,11.9731 114.5,13.5C 113.094,13.0269 112.427,12.0269 112.5,10.5 Z"/></g>
<g><path style="opacity:1" fill="#211e1f" d="M 3.5,8.5 C 3.42702,6.97306 4.09368,5.97306 5.5,5.5C 8.09019,5.5773 10.7569,5.41063 13.5,5C 14.5742,5.73869 15.2409,6.73869 15.5,8C 14.8041,10.1176 14.6374,12.2842 15,14.5C 14.2613,15.5742 13.2613,16.2409 12,16.5C 9.81442,16.0345 7.64775,15.7011 5.5,15.5C 4.58529,14.6721 3.91862,13.6721 3.5,12.5C 4.80686,11.135 4.80686,9.80163 3.5,8.5 Z"/></g>
<g><path style="opacity:0.604" fill="#787576" d="M 8.5,10.5 C 8.93822,10.5654 9.27155,10.3988 9.5,10C 4.23413,7.09532 4.56747,6.26199 10.5,7.5C 10.762,8.97782 10.4287,10.3112 9.5,11.5C 8.89333,11.3764 8.55999,11.0431 8.5,10.5 Z"/></g>
<g><path style="opacity:0.478" fill="#8e8e8e" d="M 48.5,11.5 C 49.1667,11.5 49.8333,11.5 50.5,11.5C 49.2582,18.0075 48.5915,18.0075 48.5,11.5 Z"/></g>
<g><path style="opacity:0.357" fill="#9e9e9e" d="M 58.5,10.5 C 57.5146,16.0413 56.848,16.3747 56.5,11.5C 57.1667,11.1667 57.8333,10.8333 58.5,10.5 Z"/></g>
<g><path style="opacity:1" fill="#ff473f" d="M 150.5,10.5 C 155.833,10.5 161.167,10.5 166.5,10.5C 166.5,11.8333 166.5,13.1667 166.5,14.5C 164.901,14.2322 163.568,14.5655 162.5,15.5C 162.156,21.561 162.156,27.2277 162.5,32.5C 160.271,34.553 157.938,34.8863 155.5,33.5C 156.413,27.5594 156.746,21.5594 156.5,15.5C 155.209,15.2627 154.209,15.596 153.5,16.5C 152.833,16.5 152.167,16.5 151.5,16.5C 150.566,17.5676 150.232,18.901 150.5,20.5C 149.5,20.5 148.5,20.5 147.5,20.5C 148.149,18.5229 148.149,16.6895 147.5,15C 147.836,13.9701 148.503,13.4701 149.5,13.5C 150.404,12.791 150.737,11.791 150.5,10.5 Z"/></g>
<g><path style="opacity:1" fill="#1f1c1d" d="M 38.5,11.5 C 39.625,12.6522 39.625,13.6522 38.5,14.5C 31.825,14.6663 25.1583,14.4996 18.5,14C 20.4211,13.6397 22.0878,12.8064 23.5,11.5C 24.5,12.1667 25.5,12.8333 26.5,13.5C 27.5,12.8333 28.5,12.1667 29.5,11.5C 30.5,12.1667 31.5,12.8333 32.5,13.5C 34.1727,11.9137 36.1727,11.2471 38.5,11.5 Z"/></g>
<g><path style="opacity:1" fill="#ff403b" d="M 126.5,13.5 C 126.116,15.6648 126.783,17.3315 128.5,18.5C 129.48,15.9135 129.813,13.2469 129.5,10.5C 131.167,10.5 132.833,10.5 134.5,10.5C 135.625,11.3478 135.625,12.3478 134.5,13.5C 133.509,19.979 133.176,26.6457 133.5,33.5C 131.396,33.7989 129.396,33.4656 127.5,32.5C 126.487,29.8122 125.487,27.1456 124.5,24.5C 124.719,23.325 124.386,22.325 123.5,21.5C 122.509,25.4454 122.176,29.4454 122.5,33.5C 120.5,33.5 118.5,33.5 116.5,33.5C 116.704,30.4824 117.037,27.4824 117.5,24.5C 118.162,20.5341 118.495,16.5341 118.5,12.5C 118.5,11.5 118.5,10.5 118.5,9.5C 120.527,9.33788 122.527,9.50454 124.5,10C 125.823,10.8159 126.489,11.9826 126.5,13.5 Z"/></g>
<g><path style="opacity:1" fill="#ff4840" d="M 198.5,17.5 C 196.833,17.5 195.167,17.5 193.5,17.5C 193.737,16.209 193.404,15.209 192.5,14.5C 191.167,15.8333 191.167,17.1667 192.5,18.5C 199.102,22.2293 200.102,27.0626 195.5,33C 191.269,33.9195 187.269,33.4195 183.5,31.5C 184.3,29.2591 185.966,28.2591 188.5,28.5C 189.5,28.5 190.5,28.5 191.5,28.5C 190.287,25.4467 188.12,23.1134 185,21.5C 184.503,19.1902 184.337,16.8568 184.5,14.5C 185.167,14.5 185.5,14.1667 185.5,13.5C 188.249,9.82946 191.916,8.66279 196.5,10C 199.147,12.0898 199.814,14.5898 198.5,17.5 Z"/></g>
<g><path style="opacity:0.453" fill="#9a9a9a" d="M 80.5,12.5 C 81.1667,13.1667 81.8333,13.8333 82.5,14.5C 84.0251,16.0358 86.0251,17.0358 88.5,17.5C 88.3764,18.1067 88.0431,18.44 87.5,18.5C 86.5041,18.4142 85.6708,18.7476 85,19.5C 84.3333,18.8333 83.6667,18.1667 83,17.5C 81.2458,19.25 79.0792,19.9167 76.5,19.5C 76.5,19.1667 76.5,18.8333 76.5,18.5C 77.8333,18.5 79.1667,18.5 80.5,18.5C 80.5,16.5 80.5,14.5 80.5,12.5 Z"/></g>
<g><path style="opacity:0.376" fill="#8e8e8e" d="M 101.5,10.5 C 100.952,12.6264 100.285,14.6264 99.5,16.5C 97.2651,19.2911 95.2651,22.2911 93.5,25.5C 92.1667,25.8333 92.1667,26.1667 93.5,26.5C 92.2918,27.782 90.9584,27.782 89.5,26.5C 93.1257,21.9105 95.7923,16.9105 97.5,11.5C 98.2216,11.9175 98.7216,12.5842 99,13.5C 99.2355,11.8807 100.069,10.8807 101.5,10.5 Z"/></g>
<g><path style="opacity:0.669" fill="#ff8d8a" d="M 134.5,10.5 C 132.833,10.5 131.167,10.5 129.5,10.5C 129.813,13.2469 129.48,15.9135 128.5,18.5C 126.783,17.3315 126.116,15.6648 126.5,13.5C 127.268,14.2625 127.768,15.2625 128,16.5C 128.497,14.1902 128.663,11.8568 128.5,9.5C 130.735,9.20528 132.735,9.53862 134.5,10.5 Z"/></g>
<g><path style="opacity:0.257" fill="#9c9c9c" d="M 75.5,18.5 C 75.5,18.8333 75.5,19.1667 75.5,19.5C 72.2985,18.1605 71.9652,16.4939 74.5,14.5C 75.4287,15.6888 75.762,17.0222 75.5,18.5 Z"/></g>
<g><path style="opacity:0.307" fill="#919191" d="M 109.5,17.5 C 108.5,17.5 107.5,17.5 106.5,17.5C 106.5,20.5 106.5,23.5 106.5,26.5C 106.44,27.0431 106.107,27.3764 105.5,27.5C 104.341,23.878 104.175,20.2113 105,16.5C 107.045,14.9568 108.545,15.2901 109.5,17.5 Z"/></g>
<g><path style="opacity:0.524" fill="#ff9997" d="M 134.5,13.5 C 134.328,14.4916 134.662,15.1583 135.5,15.5C 134.327,20.1909 134.327,24.8575 135.5,29.5C 134.833,30.8333 134.167,32.1667 133.5,33.5C 133.176,26.6457 133.509,19.979 134.5,13.5 Z"/></g>
<g><path style="opacity:0.661" fill="#ff8c8b" d="M 192.5,14.5 C 193.404,15.209 193.737,16.209 193.5,17.5C 195.167,17.5 196.833,17.5 198.5,17.5C 196.735,18.4614 194.735,18.7947 192.5,18.5C 192.5,17.1667 192.5,15.8333 192.5,14.5 Z"/></g>
<g><path style="opacity:1" fill="#ff463e" d="M 168.5,10.5 C 173.5,10.5 178.5,10.5 183.5,10.5C 183.5,11.8333 183.5,13.1667 183.5,14.5C 180.456,16.0114 177.122,16.678 173.5,16.5C 171.692,19.9674 171.359,23.634 172.5,27.5C 175.833,27.5 179.167,27.5 182.5,27.5C 182.5,29.1667 182.5,30.8333 182.5,32.5C 177.968,32.1818 173.634,32.5151 169.5,33.5C 168.5,33.5 167.5,33.5 166.5,33.5C 166.211,27.4093 166.545,21.4093 167.5,15.5C 168.451,14.0813 168.784,12.4147 168.5,10.5 Z"/></g>
<g><path style="opacity:1" fill="#ff7973" d="M 173.5,16.5 C 175.635,18.369 178.302,19.0356 181.5,18.5C 181.784,20.4147 181.451,22.0813 180.5,23.5C 178.302,24.1653 175.969,24.8319 173.5,25.5C 176.642,26.1674 179.642,26.834 182.5,27.5C 179.167,27.5 175.833,27.5 172.5,27.5C 171.359,23.634 171.692,19.9674 173.5,16.5 Z"/></g>
<g><path style="opacity:1" fill="#ff2f2f" d="M 180.5,23.5 C 178.076,23.8076 175.743,23.4742 173.5,22.5C 175.991,21.4593 175.991,20.6259 173.5,20C 175.81,19.5034 178.143,19.3367 180.5,19.5C 180.5,20.8333 180.5,22.1667 180.5,23.5 Z"/></g>
<g><path style="opacity:0.388" fill="#949494" d="M 63.5,10.5 C 64.5251,11.3739 65.1918,12.5405 65.5,14C 63.6179,20.4104 62.1179,26.9104 61,33.5C 58.7743,36.0814 56.6076,36.0814 54.5,33.5C 56.1439,33.7135 57.6439,33.3802 59,32.5C 60.8245,25.2158 62.3245,17.8824 63.5,10.5 Z"/></g>
<g><path style="opacity:0.365" fill="#aba2a1" d="M 118.5,12.5 C 118.495,16.5341 118.162,20.5341 117.5,24.5C 114.918,32.0715 109.584,35.7382 101.5,35.5C 100.702,35.0431 100.369,34.3764 100.5,33.5C 112.344,32.8842 117.344,26.5509 115.5,14.5C 116.268,15.2625 116.768,16.2625 117,17.5C 117.198,15.6183 117.698,13.9516 118.5,12.5 Z"/></g>
<g><path style="opacity:0.846" fill="#343131" d="M 38.5,16.5 C 39.8078,22.0373 39.8078,27.7039 38.5,33.5C 29.2612,35.44 19.9279,35.94 10.5,35C 9.5842,34.7216 8.91753,34.2216 8.5,33.5C 8.17443,29.1161 8.50776,24.7828 9.5,20.5C 9.81008,22.3245 10.4767,24.3245 11.5,26.5C 12.8333,26.5 13.5,25.8333 13.5,24.5C 12.9094,23.8485 12.2427,23.1818 11.5,22.5C 12.2427,21.8182 12.9094,21.1515 13.5,20.5C 14.3636,19.3117 15.3636,18.1451 16.5,17C 23.8258,16.5003 31.1591,16.3337 38.5,16.5 Z M 22.5,18.5 C 23.2891,18.7828 23.9558,19.2828 24.5,20C 23.184,20.5281 22.5173,20.0281 22.5,18.5 Z M 13.5,24.5 C 13.5,25.8333 12.8333,26.5 11.5,26.5C 11.5,25.1667 12.1667,24.5 13.5,24.5 Z M 22.5,24.5 C 25.0009,24.5109 25.1676,25.1776 23,26.5C 22.5357,25.9056 22.369,25.2389 22.5,24.5 Z M 33.5,24.5 C 35.337,24.6395 35.6704,25.3061 34.5,26.5C 33.7025,26.0431 33.3691,25.3764 33.5,24.5 Z M 11.5,29.5 C 13.337,29.6395 13.6704,30.3061 12.5,31.5C 11.7025,31.0431 11.3691,30.3764 11.5,29.5 Z M 22.5,29.5 C 24.337,29.6395 24.6704,30.3061 23.5,31.5C 22.7025,31.0431 22.3691,30.3764 22.5,29.5 Z M 33.5,29.5 C 35.337,29.6395 35.6704,30.3061 34.5,31.5C 33.7025,31.0431 33.3691,30.3764 33.5,29.5 Z"/></g>
<g><path style="opacity:0.133" fill="#b4b3b3" d="M 28.5,18.5 C 28.8333,21.1667 29.1667,21.1667 29.5,18.5C 30.404,19.209 30.7373,20.209 30.5,21.5C 29.5,21.5 28.5,21.5 27.5,21.5C 27.2627,20.209 27.596,19.209 28.5,18.5 Z"/></g>
<g><path style="opacity:0.137" fill="#b5b3b4" d="M 17.5,18.5 C 17.8333,21.1667 18.1667,21.1667 18.5,18.5C 19.404,19.209 19.7373,20.209 19.5,21.5C 18.5,21.5 17.5,21.5 16.5,21.5C 16.2627,20.209 16.596,19.209 17.5,18.5 Z"/></g>
<g><path style="opacity:0.545" fill="#959393" d="M 35.5,19.5 C 32.8333,19.8333 32.8333,20.1667 35.5,20.5C 34.791,21.404 33.791,21.7373 32.5,21.5C 32.5,20.5 32.5,19.5 32.5,18.5C 33.791,18.2627 34.791,18.596 35.5,19.5 Z"/></g>
<g><path style="opacity:0.904" fill="#ff7874" d="M 124.5,24.5 C 123.833,27.5 123.167,30.5 122.5,33.5C 122.176,29.4454 122.509,25.4454 123.5,21.5C 124.386,22.325 124.719,23.325 124.5,24.5 Z"/></g>
<g><path style="opacity:0.388" fill="#adacac" d="M 18.5,26.5 C 18.1667,23.8333 17.8333,23.8333 17.5,26.5C 16.596,25.791 16.2627,24.791 16.5,23.5C 17.5,23.5 18.5,23.5 19.5,23.5C 19.7373,24.791 19.404,25.791 18.5,26.5 Z"/></g>
<g><path style="opacity:0.373" fill="#acaaab" d="M 29.5,26.5 C 29.1667,23.8333 28.8333,23.8333 28.5,26.5C 27.596,25.791 27.2627,24.791 27.5,23.5C 28.5,23.5 29.5,23.5 30.5,23.5C 30.7373,24.791 30.404,25.791 29.5,26.5 Z"/></g>
<g><path style="opacity:1" fill="#ff7b76" d="M 144.5,15.5 C 145.477,18.2869 145.81,21.2869 145.5,24.5C 147.167,24.5 148.833,24.5 150.5,24.5C 150.206,27.7541 148.873,30.4208 146.5,32.5C 146.489,30.9826 145.823,29.8159 144.5,29C 149.097,28.4382 149.43,27.2715 145.5,25.5C 144.817,25.8627 144.15,26.1961 143.5,26.5C 144.344,22.9009 144.677,19.2343 144.5,15.5 Z"/></g>
<g><path style="opacity:1" fill="#ff4942" d="M 141.5,9.5 C 143.423,11.19 145.423,11.5234 147.5,10.5C 148.906,10.9731 149.573,11.9731 149.5,13.5C 148.503,13.4701 147.836,13.9701 147.5,15C 148.149,16.6895 148.149,18.5229 147.5,20.5C 148.5,20.5 149.5,20.5 150.5,20.5C 150.232,18.901 150.566,17.5676 151.5,16.5C 151.721,19.2788 151.388,21.9455 150.5,24.5C 148.833,24.5 147.167,24.5 145.5,24.5C 145.81,21.2869 145.477,18.2869 144.5,15.5C 143.883,15.3893 143.383,15.056 143,14.5C 141.048,18.3042 140.381,22.3042 141,26.5C 141.977,27.7736 142.811,27.7736 143.5,26.5C 144.15,26.1961 144.817,25.8627 145.5,25.5C 149.43,27.2715 149.097,28.4382 144.5,29C 145.823,29.8159 146.489,30.9826 146.5,32.5C 143.927,33.5552 141.261,33.7218 138.5,33C 136.574,32.5776 135.574,31.4109 135.5,29.5C 134.327,24.8575 134.327,20.1909 135.5,15.5C 136.5,12.5 138.5,10.5 141.5,9.5 Z"/></g>
<g><path style="opacity:0.563" fill="#ffa19f" d="M 153.5,16.5 C 154.209,15.596 155.209,15.2627 156.5,15.5C 156.746,21.5594 156.413,27.5594 155.5,33.5C 154.992,30.3856 154.992,27.0523 155.5,23.5C 155.471,20.7305 154.805,18.3972 153.5,16.5 Z"/></g>
<g><path style="opacity:0.514" fill="#949494" d="M 99.5,23.5 C 99.5,26.8333 99.5,30.1667 99.5,33.5C 98.71,32.3915 98.21,31.0581 98,29.5C 97.7266,31.1012 97.2266,32.6012 96.5,34C 93.8121,34.3924 91.1454,34.8924 88.5,35.5C 86.8295,35.3318 85.4961,34.6651 84.5,33.5C 88.2198,33.4358 91.8865,32.9358 95.5,32C 96.4061,30.3005 96.7394,28.4672 96.5,26.5C 97.1174,26.6107 97.6174,26.944 98,27.5C 98.21,25.9419 98.71,24.6085 99.5,23.5 Z"/></g>
<g><path style="opacity:1" fill="#ff857a" d="M 188.5,28.5 C 185.966,28.2591 184.3,29.2591 183.5,31.5C 183.5,32.1667 183.167,32.5 182.5,32.5C 182.5,30.8333 182.5,29.1667 182.5,27.5C 183.787,28.7683 184.787,28.435 185.5,26.5C 186.739,26.9424 187.739,27.6091 188.5,28.5 Z"/></g>
<g><path style="opacity:0.624" fill="#878485" d="M 17.5,29.5 C 17.8333,32.1667 18.1667,32.1667 18.5,29.5C 19.404,30.209 19.7373,31.209 19.5,32.5C 18.5,32.5 17.5,32.5 16.5,32.5C 16.2627,31.209 16.596,30.209 17.5,29.5 Z"/></g>
<g><path style="opacity:0.6" fill="#868484" d="M 28.5,29.5 C 28.8333,32.1667 29.1667,32.1667 29.5,29.5C 30.404,30.209 30.7373,31.209 30.5,32.5C 29.5,32.5 28.5,32.5 27.5,32.5C 27.2627,31.209 27.596,30.209 28.5,29.5 Z"/></g>
<g><path style="opacity:0.416" fill="#ff9896" d="M 182.5,32.5 C 178.435,33.1933 174.268,33.8599 170,34.5C 169.601,34.2716 169.435,33.9382 169.5,33.5C 173.634,32.5151 177.968,32.1818 182.5,32.5 Z"/></g>
<g><path style="opacity:0.378" fill="#989898" d="M 53.5,33.5 C 50.7118,36.0748 48.0451,36.0748 45.5,33.5C 49.4214,34.07 51.588,32.4033 52,28.5C 52.3519,30.2475 52.8519,31.9142 53.5,33.5 Z"/></g>
<g><path style="opacity:0.443" fill="#9d9d9d" d="M 80.5,24.5 C 81.1667,25.1667 81.8333,25.8333 82.5,26.5C 81.1667,28.1667 81.1667,29.8333 82.5,31.5C 80.1607,33.3364 77.4941,34.6697 74.5,35.5C 72.5784,35.1992 70.9117,34.5325 69.5,33.5C 76.5706,34.4165 80.2373,31.4165 80.5,24.5 Z"/></g>
</svg>
